<?xml version="1.0" encoding="UTF-8"?>
<svg width="32px" height="32px" viewBox="0 0 32 32" version="1.1" xmlns="http://www.w3.org/2000/svg" xmlns:xlink="http://www.w3.org/1999/xlink">
    <title>编组 8@1x</title>
    <g id="页面-1" stroke="none" stroke-width="1" fill="none" fill-rule="evenodd">
        <g id="服务概览" transform="translate(-1542.000000, -170.000000)">
            <g id="编组-8" transform="translate(1542.000000, 170.000000)">
                <rect id="矩形" fill-opacity="0.1" fill="#735CE6" x="0" y="0" width="32" height="32" rx="10"></rect>
                <g id="hard-drive-fill" transform="translate(8.000000, 8.000000)">
                    <polygon id="路径" points="0 0 16 0 16 16 0 16"></polygon>
                    <path d="M9.3,1.33333333 L13.3333333,1.33333333 C13.7015232,1.33333333 14,1.63181017 14,2 L14,14 C14,14.3681898 13.7015232,14.6666667 13.3333333,14.6666667 L2.66666667,14.6666667 C2.29847683,14.6666667 2,14.3681898 2,14 L2,8.63333333 C2.21933333,8.65533333 2.442,8.66666667 2.66666667,8.66666667 C6.34866667,8.66666667 9.33333333,5.682 9.33333333,2 C9.33333333,1.77533333 9.322,1.55266667 9.3,1.33333333 Z M10,10.6666667 L10,12 L11.3333333,12 L11.3333333,10.6666667 L10,10.6666667 Z M7.95866667,1.33333333 C8.16482242,2.96822608 7.60367032,4.6066069 6.43847194,5.77180528 C5.27327357,6.93700365 3.63489275,7.49815576 2,7.292 L2,2 C2,1.63181017 2.29847683,1.33333333 2.66666667,1.33333333 L7.95866667,1.33333333 Z" id="形状" fill="#735CE6" fill-rule="nonzero"></path>
                </g>
            </g>
        </g>
    </g>
</svg>