<svg t="1631513961939" class="icon" viewBox="0 0 1024 1024" version="1.1" xmlns="http://www.w3.org/2000/svg" p-id="15267" width="32" height="32">
    <path d="M512.8 546.6l-19.4-7.7-398-173c-17.2-7.5-28.3-24.5-28.3-43.5s11.1-36 28.3-43.5L512.1 98.2l19 7.5 399.6 173.2c17.3 7.5 28.4 24.6 28.4 43.5s-11.1 36-28.3 43.5l-418 180.7zM221.1 322.5l290.8 126.4 292.8-126.6L513 195.9 221.1 322.5z" p-id="15268"></path>
    <path d="M511.9 733.1c-6.1 0-12.2-1.2-17.9-3.7L90.1 553.8C73.6 546.7 63 530.4 63 512.5s10.7-34.1 27.1-41.3l220-95.2 35.8 82.6-124.8 54.1L511.9 639l292.8-126.5L688.3 462c-22.8-9.9-33.3-36.4-23.4-59.2 9.9-22.8 36.3-33.3 59.2-23.4l211.8 91.8c16.5 7.1 27.1 23.4 27.1 41.3s-10.7 34.2-27.1 41.3l-406 175.5c-5.9 2.5-11.9 3.8-18 3.8z"></path>
    <path d="M511.9 923.3c-6.1 0-12.2-1.2-17.9-3.7L90.1 744.1C73.6 737 63 720.7 63 702.8s10.7-34.1 27.1-41.3L310 566.2c22.9-9.9 49.3 0.6 59.2 23.4 9.9 22.8-0.6 49.3-23.4 59.2L221 702.9l290.8 126.4 292.7-126.5-116.4-50.5c-22.8-9.9-33.3-36.4-23.4-59.2 9.9-22.8 36.4-33.3 59.2-23.4l211.8 91.8c16.5 7.1 27.1 23.4 27.1 41.3s-10.7 34.2-27.1 41.3l-406 175.5c-5.7 2.5-11.7 3.7-17.8 3.7z"></path>
</svg>
