<?xml version="1.0" encoding="UTF-8"?>
<svg width="20px" height="20px" viewBox="0 0 20 20" version="1.1" xmlns="http://www.w3.org/2000/svg" xmlns:xlink="http://www.w3.org/1999/xlink">
    <g transform="translate(-16.000000, -230.000000)">
        <g transform="translate(16.000000, 230.000000)">
            <g transform="translate(4.000000, 3.000000)">
                <path d="M11.7998558,0 L1.20014425,0 C0.540689987,0 0,0.5389422 0,1.1997322 L0,2.79937514 C0,3.45860299 0.539127299,3.99910734 1.20014425,3.99910734 L11.7998558,3.99910734 C12.45931,3.99910734 13,3.46016514 13,2.79937514 L13,1.19817005 C12.9984373,0.5389422 12.45931,0 11.7998558,0 Z M3.05818007,2.2682437 C3.05818007,2.56349029 2.81596346,2.80562374 2.52061546,2.80562374 L1.86897464,2.80562374 C1.57362664,2.80562374 1.33141003,2.56349029 1.33141003,2.2682437 L1.33141003,1.6168266 C1.33141003,1.32158 1.57362664,1.07944655 1.86897464,1.07944655 L2.52061546,1.07944655 C2.81596346,1.07944655 3.05818007,1.32158 3.05818007,1.6168266 L3.05818007,2.2682437 Z M11.7998558,4.99575988 L1.20014425,4.99575988 C0.540689987,4.99575988 0,5.53470208 0,6.19549208 L0,7.79044856 C0,8.44967641 0.539127299,8.99018076 1.20014425,8.99018076 L11.7998558,8.99018076 C12.45931,8.99018076 13,8.45123856 13,7.79044856 L13,6.19549208 C12.9984373,5.53626423 12.45931,4.99575988 11.7998558,4.99575988 L11.7998558,4.99575988 Z M3.05818007,7.32024102 C3.05818007,7.61548761 2.81596346,7.85762107 2.52061546,7.85762107 L1.86897464,7.85762107 C1.57362664,7.85762107 1.33141003,7.61548761 1.33141003,7.32024102 L1.33141003,6.66882392 C1.33141003,6.37357733 1.57362664,6.13144387 1.86897464,6.13144387 L2.52061546,6.13144387 C2.81596346,6.13144387 3.05818007,6.37357733 3.05818007,6.66882392 L3.05818007,7.32024102 Z M11.7998558,9.9962062 L1.20014425,9.9962062 C0.540689987,9.9962062 0,10.5351484 0,11.1959384 L0,12.8002678 C0,13.4594956 0.539127299,14 1.20014425,14 L11.7998558,14 C12.45931,14 13,13.4610578 13,12.8002678 L13,11.1959384 C12.9984373,10.5367106 12.45931,9.9962062 11.7998558,9.9962062 Z M3.05818007,12.2410176 C3.05818007,12.5362642 2.81596346,12.7783977 2.52061546,12.7783977 L1.86897464,12.7783977 C1.57362664,12.7783977 1.33141003,12.5362642 1.33141003,12.2410176 L1.33141003,11.5896005 C1.33141003,11.2943539 1.57362664,11.0522205 1.86897464,11.0522205 L2.52061546,11.0522205 C2.81596346,11.0522205 3.05818007,11.2943539 3.05818007,11.5896005 L3.05818007,12.2410176 Z"></path>
            </g>
        </g>
    </g>
</svg>
