<?xml version="1.0" standalone="no"?><!DOCTYPE svg PUBLIC "-//W3C//DTD SVG 1.1//EN" "http://www.w3.org/Graphics/SVG/1.1/DTD/svg11.dtd"><svg t="1631939877380" class="icon" viewBox="0 0 1024 1024" version="1.1" xmlns="http://www.w3.org/2000/svg" p-id="12540" xmlns:xlink="http://www.w3.org/1999/xlink" width="32" height="32">
    <path d="M808.512 148.736h-39.168A88.064 88.064 0 0 0 681.408 64H342.592c-47.36 0-86.208 37.696-87.872 84.736h-39.232c-60.16 0-109.184 48.96-109.184 109.056v593.088c0 60.16 49.024 109.12 109.184 109.12h593.024c60.16 0 109.184-48.96 109.184-109.12V257.792c0-60.096-49.024-109.056-109.184-109.056zM155.136 257.792c0-33.344 27.136-60.352 60.352-60.352h52.288a88.32 88.32 0 0 0 75.136 42.368h339.008c30.592 0 59.2-16.192 75.008-42.368h51.584c33.28 0 60.352 27.072 60.352 60.352v593.088a60.48 60.48 0 0 1-60.352 60.416H215.488a60.48 60.48 0 0 1-60.352-60.416V257.792z m526.272-66.688H342.592a39.232 39.232 0 0 1 0-78.4h338.88a39.296 39.296 0 0 1-0.064 78.4z" p-id="12541"></path>
    <path d="M716.16 438.08l-66.24-66.56a72.576 72.576 0 0 0-102.336 0L316.992 602.432a50.176 50.176 0 0 0-14.656 35.456v106.112c0 26.432 15.168 41.6 41.6 41.6h0.064l106.944-0.576a50.88 50.88 0 0 0 35.456-14.784l229.888-230.208a71.296 71.296 0 0 0-0.128-101.952z m-369.792 303.424l-1.28-94.272 94.656 94.592-93.376-0.32z m130.88-20.224L366.976 611.392l146.752-146.688 109.504 109.504-145.984 147.072z m209.408-210.688l-32.64 32.64-109.44-109.44 32.96-32.832c3.84-3.84 12.16-6.336 21.376-6.336 9.28 0 17.664 2.496 21.504 6.336l66.304 66.56c8.384 8.512 8.384 34.624-0.064 43.072z" p-id="12542"></path>
</svg>
