<?xml version="1.0" standalone="no"?><!DOCTYPE svg PUBLIC "-//W3C//DTD SVG 1.1//EN" "http://www.w3.org/Graphics/SVG/1.1/DTD/svg11.dtd"><svg t="1636438032416" class="icon" viewBox="0 0 1024 1024" version="1.1" xmlns="http://www.w3.org/2000/svg" p-id="2436" xmlns:xlink="http://www.w3.org/1999/xlink" width="200" height="200"><defs><style type="text/css"></style></defs><path d="M512 256a32 32 0 0 0 32-32V127.04a32 32 0 1 0-64 0V224a32 32 0 0 0 32 32zM342.368 616.032a12.8 12.8 0 0 0-9.056 21.856l170.752 170.752a12.8 12.8 0 0 0 18.112 0l170.752-170.752a12.8 12.8 0 0 0-9.056-21.856H544V352a32 32 0 1 0-64 0v264.032h-137.632z" p-id="2437"></path><path d="M892.384 186.496l-174.176-86.08a32.032 32.032 0 0 0-28.384 57.376L864 243.872v502.848l-352 147.52-352-147.52V243.872l174.176-86.08a32 32 0 0 0-28.32-57.376l-174.208 86.08A63.648 63.648 0 0 0 96 243.872v502.848c0 25.888 15.424 49.056 39.264 59.008l364.384 152.704a31.936 31.936 0 0 0 24.768 0l364.352-152.672A63.84 63.84 0 0 0 928 746.72V243.872a63.68 63.68 0 0 0-35.616-57.376z" p-id="2438"></path></svg>