<?xml version="1.0" standalone="no"?><!DOCTYPE svg PUBLIC "-//W3C//DTD SVG 1.1//EN" "http://www.w3.org/Graphics/SVG/1.1/DTD/svg11.dtd"><svg t="1631940215774" class="icon" viewBox="0 0 1024 1024" version="1.1" xmlns="http://www.w3.org/2000/svg" p-id="14672" xmlns:xlink="http://www.w3.org/1999/xlink" width="32" height="32">
    <path d="M85.333333 483.555556h398.222223v-398.222223h-398.222223v398.222223z m56.888889-341.333334h284.444445v284.444445h-284.444445v-284.444445zM568.888889 85.333333h-28.444445v398.222223h398.222223V455.111111c0-204.8-164.977778-369.777778-369.777778-369.777778z m28.444444 341.333334v-284.444445c147.911111 11.377778 267.377778 130.844444 284.444445 284.444445h-284.444445zM85.333333 568.888889c0 204.8 164.977778 369.777778 369.777778 369.777778h28.444445v-398.222223h-398.222223v28.444445z m341.333334 28.444444v284.444445c-147.911111-11.377778-267.377778-130.844444-284.444445-284.444445h284.444445zM540.444444 938.666667h28.444445c204.8 0 369.777778-164.977778 369.777778-369.777778v-28.444445h-398.222223v398.222223z m56.888889-341.333334h284.444445c-11.377778 147.911111-130.844444 267.377778-284.444445 284.444445v-284.444445z"  p-id="14673"></path>
</svg>
