<?xml version="1.0" encoding="UTF-8"?>
<svg width="20px" height="20px" viewBox="0 0 20 20" version="1.1" xmlns="http://www.w3.org/2000/svg" xmlns:xlink="http://www.w3.org/1999/xlink">
    <g stroke="none" stroke-width="1">
        <g transform="translate(-16.000000, -358.000000)">
            <g transform="translate(0.000000, 336.000000)">
                <g transform="translate(16.000000, 22.000000)">
                    <g transform="translate(1.000000, 2.000000)">
                        <path d="M9.00000015,0 C9.53043301,0 10.0391408,0.198318758 10.4142136,0.551328411 C10.7892863,0.904338064 11.0000001,1.3831219 11.0000001,1.88235294 L15.5000001,1.88235294 L15.5000001,5.70635294 C16.0988593,5.56236967 16.7348053,5.68653025 17.2234009,6.04282564 C17.7119964,6.39912104 17.9985664,6.94768082 18.0000001,7.52941177 C18.0000001,8.11168434 17.7139948,8.66124821 17.2249457,9.01787439 C16.7358965,9.37450057 16.0990193,9.49803876 15.5000001,9.35247059 L15.5000001,14.1176471 L11.0000001,14.1176471 C11.0000001,15.1572419 10.1045695,16 9.00000015,16 C7.89543057,16 7.00000015,15.1572419 7.00000015,14.1176471 L2.50000015,14.1176471 L2.50100023,9.35247059 C1.90200065,9.49679674 1.26575406,9.37279868 0.776906526,9.01646207 C0.288058989,8.66012547 0.00135534917,8.1113556 1.47216207e-07,7.52941177 C-0.00023700414,6.94692572 0.286058602,6.39715044 0.775360472,6.04048266 C1.26466234,5.68381488 1.90184116,5.56044013 2.50100023,5.70635294 L2.50000015,1.88235294 L7.00000015,1.88235294 C7.00000015,0.842758116 7.89543057,0 9.00000015,0 Z M13.0000002,8.47058823 L5.00000016,8.47058823 L5.00000016,10.3529412 L13.0000002,10.3529412 L13.0000002,8.47058823 L13.0000002,8.47058823 Z M9.00000016,4.70588236 L5.00000016,4.70588236 L5.00000016,6.5882353 L9.00000016,6.5882353 L9.00000016,4.70588236 Z"></path>
                    </g>
                </g>
            </g>
        </g>
    </g>
</svg>
