<?xml version="1.0" encoding="UTF-8"?>
<svg width="20px" height="20px" viewBox="0 0 20 20" version="1.1" xmlns="http://www.w3.org/2000/svg" xmlns:xlink="http://www.w3.org/1999/xlink">
    <g stroke="none" stroke-width="1">
        <g transform="translate(-16.000000, -294.000000)">
            <g transform="translate(0.000000, 272.000000)">
                <g transform="translate(16.000000, 22.000000)">
                    <g transform="translate(1.000000, 2.000000)">
                        <path d="M9.00000015,0 C9.53043301,0 10.0391408,0.198318758 10.4142136,0.551328411 C10.7892863,0.904338064 11.0000001,1.3831219 11.0000001,1.88235294 L15.5000001,1.88235294 L15.5000001,5.70635294 C16.0988593,5.56236967 16.7348053,5.68653025 17.2234009,6.04282564 C17.7119964,6.39912104 17.9985664,6.94768082 18.0000001,7.52941177 C18.0000001,8.11168434 17.7139948,8.66124821 17.2249457,9.01787439 C16.7358965,9.37450057 16.0990193,9.49803876 15.5000001,9.35247059 L15.5000001,14.1176471 L11.0000001,14.1176471 C11.0000001,15.1572419 10.1045695,16 9.00000015,16 C7.89543057,16 7.00000015,15.1572419 7.00000015,14.1176471 L2.50000015,14.1176471 L2.50100023,9.35247059 C1.90200065,9.49679674 1.26575406,9.37279868 0.776906526,9.01646207 C0.288058989,8.66012547 0.00135534917,8.1113556 1.47216213e-07,7.52941177 C-0.00023700414,6.94692572 0.286058602,6.39715044 0.775360472,6.04048266 C1.26466234,5.68381488 1.90184116,5.56044013 2.50100023,5.70635294 L2.50000015,1.88235294 L7.00000015,1.88235294 C7.00000015,0.842758116 7.89543057,0 9.00000015,0 Z M13.3079241,8.71194742 C13.0517857,8.71194742 12.8308036,8.85526485 12.7112723,9.06766336 L11.4446429,9.06766336 L10.4421875,7.01069725 L9.67075893,9.9141642 L9.15245536,4.05980152 L8.4734375,4 L7.15758929,9.06560124 L5,9.06560124 L5,9.77600206 L7.68895089,9.77600206 L8.63917411,6.11676762 L9.15446429,11.9391674 L9.83348214,12 L10.6330357,8.98930275 L11.0157366,9.774971 L12.7112723,9.774971 C12.8308036,9.98633845 13.0517857,10.1306869 13.3079241,10.1306869 C13.6896205,10.1306869 14,9.81208919 14,9.42028612 C14,9.02848305 13.6896205,8.71194742 13.3079241,8.71194742 L13.3079241,8.71194742 Z"></path>
                    </g>
                </g>
            </g>
        </g>
    </g>
</svg>
