<?xml version="1.0" encoding="UTF-8"?>
<svg width="20px" height="20px" viewBox="0 0 20 20" version="1.1" xmlns="http://www.w3.org/2000/svg" xmlns:xlink="http://www.w3.org/1999/xlink">
    <g transform="translate(-16.000000, -102.000000)">
        <g transform="translate(0.000000, 80.000000)">
            <g transform="translate(16.000000, 22.000000)">
                <g transform="translate(3.000000, 3.000000)">
                    <path d="M3.96402011,12.0368571 C3.99319187,12.0106361 4.01698986,11.9844151 4.04385859,11.9581941 L4.05,11.95 C3.94098976,12.0557035 3.9363837,12.0638976 3.96478777,12.0368571 L3.96402011,12.0368571 Z"></path>
                    <path d="M5.34104547,7.02041667 L1.35106642,5.13041667 L1.33939982,5.12458333 C1.17255108,5.04806467 0.991529168,5.00732956 0.807985937,5.00499999 C0.583403783,5.00499999 0.378071524,5.07791666 0.230488969,5.21033333 C0.0811564221,5.3445 -0.00284313871,5.53233333 7.35076744e-05,5.72716666 L7.35076744e-05,10.8260833 C7.35076744e-05,11.0378333 0.0928230213,11.2729167 0.261405478,11.4864167 C0.426487939,11.6964167 0.653403419,11.8725833 0.901318786,11.9834167 L4.88896451,13.8734167 L4.90063111,13.87925 L4.90354777,13.8804167 C5.08496348,13.95975 5.26404588,14 5.43437831,14 C5.65896047,14 5.86429273,13.9276667 6.0124586,13.79525 C6.16062449,13.6628333 6.24229074,13.4790833 6.24229074,13.27725 L6.24229074,8.1795 C6.24229074,7.96716666 6.14895789,7.73266667 5.98095877,7.51858333 C5.81017281,7.30442563 5.59080871,7.13405262 5.34104547,7.02158333 L5.34104547,7.02041667 L5.34104547,7.02041667 Z M13.7701679,5.21033333 C13.6094273,5.07327307 13.4038571,5.00018108 13.1926709,5.00499999 C13.0205885,5.00499999 12.8420894,5.04583333 12.6618404,5.12458333 L8.66019471,7.021 C8.41227935,7.13183333 8.18536387,7.30858334 8.0202814,7.518 C7.85111563,7.73208333 7.75894943,7.96716666 7.75894943,8.17891666 L7.75894943,13.27725 C7.75894943,13.4790833 7.84061567,13.6628333 7.98878156,13.79525 C8.13636412,13.9270833 8.34169637,14 8.56627853,14 L8.56861185,14 C8.75236089,13.9970833 8.93610993,13.9550833 9.10002573,13.87925 L13.0841715,11.9834167 C13.3315035,11.8725833 13.5590023,11.6958333 13.7240848,11.4864167 C13.8920839,11.2729167 13.9848334,11.03725 13.9848334,10.8249167 L14,5.72716666 C14,5.5265 13.9183338,5.34216666 13.7707512,5.21033333 L13.7701679,5.21033333 Z M12.3526753,3.55016667 C12.7061735,3.38916666 12.9062557,3.13133334 12.9045171,2.84258333 C12.9015891,2.55675 12.7020902,2.30416667 12.3550086,2.15016666 L7.91936526,0.164500004 C7.68019986,0.0583333297 7.37103481,0 7.05136983,0 C6.71362161,0 6.38812331,0.0635833289 6.13495797,0.179666664 L1.65206483,2.2505 C1.30031668,2.4115 1.09965107,2.66991667 1.10196427,2.95808333 C1.10373438,3.24391667 1.30381667,3.4965 1.65031484,3.65050001 L6.08595822,5.63558334 C6.25629065,5.71141667 6.46278958,5.76333333 6.68503841,5.78666667 L6.66812184,5.80125 L6.95395366,5.80125 C7.29170188,5.80125 7.61720018,5.73708334 7.87153218,5.62041666 L12.3532586,3.55016667 L12.3526753,3.55016667 Z"></path>
                </g>
            </g>
        </g>
    </g>
</svg>
