<?xml version="1.0" standalone="no"?>
<!DOCTYPE svg PUBLIC "-//W3C//DTD SVG 1.1//EN" "http://www.w3.org/Graphics/SVG/1.1/DTD/svg11.dtd">
<svg viewBox="0 0 1024 1024" version="1.1" xmlns="http://www.w3.org/2000/svg" p-id="2179" width="32" height="32" xmlns:xlink="http://www.w3.org/1999/xlink">
    <path d="M404.138667 205.824h159.36a38.912 38.912 0 1 0 0-77.824H404.138667a38.912 38.912 0 1 0 0 77.824z"></path>
    <path d="M765.568 155.605333h-94.72a61.696 61.696 0 0 1-60.672 73.002667H357.504a61.696 61.696 0 0 1-60.672-73.002667H202.112C161.152 155.605333 128 188.757333 128 229.717333v592.170667C128 862.848 161.152 896 202.112 896h563.456c40.96 0 74.112-33.152 74.112-74.112V229.717333c0-40.96-33.152-74.112-74.112-74.112zM245.674667 760.576a37.034667 37.034667 0 1 1-0.042667-74.112 37.034667 37.034667 0 0 1 0 74.112z m0-163.541333a37.034667 37.034667 0 1 1 0-74.069334 37.034667 37.034667 0 0 1 0 74.069334z m0-163.413334a37.034667 37.034667 0 1 1-0.042667-74.112 37.034667 37.034667 0 0 1 0 74.112z m264.192 308.394667H361.813333a18.602667 18.602667 0 0 1-18.517333-18.517333c0-10.197333 8.32-18.517333 18.517333-18.517334h148.053334c10.197333 0 18.517333 8.32 18.517333 18.517334a18.56 18.56 0 0 1-18.517333 18.517333z m0-163.498667H361.813333a18.602667 18.602667 0 0 1-18.517333-18.517333c0-10.24 8.32-18.56 18.517333-18.56h148.053334a18.56 18.56 0 0 1 0 37.034667z m190.933333 94.037334v146.901333c0 8.618667-6.954667 15.573333-15.018667 15.018667h-50.218666c-8.021333 0.469333-14.976-6.485333-14.976-15.018667v-146.901333a98.005333 98.005333 0 0 1-58.282667-89.301334c0-42.709333 27.776-79.146667 65.792-92.458666v93.013333h65.194667v-93.013333a98.346667 98.346667 0 0 1 65.792 92.458666 98.133333 98.133333 0 0 1-58.282667 89.301334z m39.765333-257.450667H361.813333a18.602667 18.602667 0 0 1-18.517333-18.517333c0-10.24 8.32-18.56 18.517333-18.56h378.752c10.154667 0 18.517333 8.362667 18.517334 18.517333a18.602667 18.602667 0 0 1-18.517334 18.56z"></path>
</svg>
