<?xml version="1.0" encoding="UTF-8"?>
<svg width="32px" height="32px" viewBox="0 0 32 32" version="1.1" xmlns="http://www.w3.org/2000/svg" xmlns:xlink="http://www.w3.org/1999/xlink">
    <title>编组 7@1x</title>
    <g id="页面-1" stroke="none" stroke-width="1" fill="none" fill-rule="evenodd">
        <g id="服务概览" transform="translate(-1274.000000, -170.000000)">
            <g id="编组-7" transform="translate(1274.000000, 170.000000)">
                <rect id="矩形" fill-opacity="0.1" fill="#735CE6" x="0" y="0" width="32" height="32" rx="10"></rect>
                <g id="database-fill" transform="translate(8.000000, 8.000000)">
                    <polygon id="路径" points="0 0 16 0 16 16 0 16"></polygon>
                    <path d="M7.33333333,4.66666667 L7.33333333,2.66666667 C7.33333333,2.29847683 7.63181017,2 8,2 L14,2 C14.3681898,2 14.6666667,2.29847683 14.6666667,2.66666667 L14.6666667,13.3333333 C14.6666667,13.7015232 14.3681898,14 14,14 L2,14 C1.63181017,14 1.33333333,13.7015232 1.33333333,13.3333333 L1.33333333,5.33333333 C1.33333333,4.9651435 1.63181017,4.66666667 2,4.66666667 L7.33333333,4.66666667 Z M3.33333333,10.6666667 L3.33333333,12 L6.66666667,12 L6.66666667,10.6666667 L3.33333333,10.6666667 Z M9.33333333,10.6666667 L9.33333333,12 L12.6666667,12 L12.6666667,10.6666667 L9.33333333,10.6666667 Z M9.33333333,8.66666667 L9.33333333,10 L12.6666667,10 L12.6666667,8.66666667 L9.33333333,8.66666667 Z M9.33333333,6.66666667 L9.33333333,8 L12.6666667,8 L12.6666667,6.66666667 L9.33333333,6.66666667 Z M3.33333333,8.66666667 L3.33333333,10 L6.66666667,10 L6.66666667,8.66666667 L3.33333333,8.66666667 Z" id="形状" fill="#735CE6" fill-rule="nonzero"></path>
                </g>
            </g>
        </g>
    </g>
</svg>