<?xml version="1.0" encoding="UTF-8"?>
<svg width="54px" height="54px" viewBox="0 0 54 54" version="1.1" xmlns="http://www.w3.org/2000/svg" xmlns:xlink="http://www.w3.org/1999/xlink">
    <g stroke="none" stroke-width="1" fill="none" fill-rule="evenodd">
        <g transform="translate(-384.000000, -307.000000)">
            <g transform="translate(384.000000, 307.000000)">
                <g transform="translate(2.000000, 2.000000)">
                    <circle id="椭圆形" stroke="#1492FF" stroke-width="2.5" cx="25" cy="25" r="24"></circle>
                    <g id="填写" transform="translate(25.414214, 25.000000) rotate(-360.000000) translate(-25.414214, -25.000000) translate(11.414214, 11.000000)" fill="#1492FF" fill-rule="nonzero">
                        <path d="M24.3833332,16.0136667 C24.0429257,16.0135153 23.7164168,16.1486746 23.4757123,16.3893791 C23.2350078,16.6300836 23.0998485,16.9565924 23.0999999,17.297 L23.0999999,24.15 C23.0993709,24.8585047 22.5251713,25.4327044 21.8166666,25.4333333 L3.84999998,25.4333333 C3.14149524,25.4327044 2.5672956,24.8585047 2.56666665,24.15 L2.56666665,6.18333333 C2.56666665,5.47607407 3.14274073,4.9 3.84999998,4.9 L10.7029999,4.9 C11.4117654,4.9 11.9863333,4.3254321 11.9863333,3.61666667 C11.9863333,2.90790124 11.4117654,2.33333333 10.7029999,2.33333333 L3.84999998,2.33333333 C1.72461592,2.33553401 0.00220068048,4.05794927 0,6.18333333 L0,24.15 C0.00220068048,26.2753841 1.72461592,27.9977993 3.84999998,28 L21.8166666,28 C23.9420506,27.9977993 25.6644659,26.2753841 25.6666667,24.15 L25.6666667,17.297 C25.6666667,16.9565924 25.5316586,16.6300836 25.2909541,16.3893791 C25.0502496,16.1486746 24.7237408,16.0135153 24.3833332,16.0136667 L24.3833332,16.0136667 Z" id="路径"></path>
                        <path d="M27.6374597,5.32114631 L22.6788537,0.362540272 C22.1948647,-0.120846757 21.4108018,-0.120846757 20.9268129,0.362540272 L8.53029778,12.7590554 C8.29775157,12.9913121 8.166956,13.3064105 8.16666667,13.6350758 L8.16666667,18.5936818 C8.16666667,18.9224578 8.29727243,19.2377681 8.52975219,19.4702478 C8.76223194,19.7027276 9.07754216,19.8333333 9.40631818,19.8333333 L14.3649242,19.8333333 C14.6935895,19.833044 15.0086879,19.7022484 15.2409446,19.4697022 L27.6374597,7.07318712 C28.1208468,6.58919816 28.1208468,5.80513527 27.6374597,5.32114631 Z M13.851984,17.3540303 L10.6459697,17.3540303 L10.6459697,14.148567 L21.8028333,2.99170339 L25.0082966,6.19716672 L13.851433,17.3540303 L13.851984,17.3540303 Z" id="形状"></path>
                    </g>
                </g>
            </g>
        </g>
    </g>
</svg>
