<?xml version="1.0" standalone="no"?><!DOCTYPE svg PUBLIC "-//W3C//DTD SVG 1.1//EN" "http://www.w3.org/Graphics/SVG/1.1/DTD/svg11.dtd"><svg t="1631939525248" class="icon" viewBox="0 0 1059 1024" version="1.1" xmlns="http://www.w3.org/2000/svg" p-id="8081" xmlns:xlink="http://www.w3.org/1999/xlink" width="33.09375" height="32">
    <path d="M529.698266 563.842164a28.425448 28.425448 0 0 1-12.596375-2.954017l-501.625547-254.101208a27.868086 27.868086 0 0 1 0-49.716665l501.625547-254.045472a28.202503 28.202503 0 0 1 25.19275 0l501.625548 254.045472a27.868086 27.868086 0 0 1 0 49.716665l-501.625548 254.101208a28.815601 28.815601 0 0 1-12.596375 2.954017zM89.772661 281.928607l439.925605 222.944687 439.925606-222.944687-439.925606-222.944688z" p-id="8082"></path>
    <path d="M529.698266 793.753874a28.425448 28.425448 0 0 1-12.596375-2.954017l-501.625547-254.045472a27.868086 27.868086 0 1 1 25.19275-49.772402L529.698266 734.673531l489.029173-247.691548a27.868086 27.868086 0 0 1 25.19275 49.772402l-501.625548 254.045472a28.815601 28.815601 0 0 1-12.596375 2.954017z" p-id="8083"></path>
    <path d="M529.698266 1023.665583a28.425448 28.425448 0 0 1-12.596375-2.954017l-501.625547-254.045472a27.868086 27.868086 0 1 1 25.19275-49.772401L529.698266 964.585241l489.029173-247.691548a27.868086 27.868086 0 0 1 25.19275 49.772401l-501.625548 254.045472a28.815601 28.815601 0 0 1-12.596375 2.954017z" p-id="8084"></path>
</svg>
