<?xml version="1.0" standalone="no"?><!DOCTYPE svg PUBLIC "-//W3C//DTD SVG 1.1//EN" "http://www.w3.org/Graphics/SVG/1.1/DTD/svg11.dtd"><svg t="1631939740823" class="icon" viewBox="0 0 1024 1024" version="1.1" xmlns="http://www.w3.org/2000/svg" p-id="10390" xmlns:xlink="http://www.w3.org/1999/xlink" width="32" height="32">
    <path d="M511.035577 64.479074a181.649763 181.649763 0 0 1 181.649763 181.649763 181.649763 181.649763 0 0 1-107.671432 166.26813l-37.355395 16.84655v197.031397h226.329745a118.658313 118.658313 0 0 1 118.658313 118.658313v27.833431H130.157042v-27.833431a118.658313 118.658313 0 0 1 117.925854-118.658313H455.368714V423.383848l-32.228184-17.57901a182.382222 182.382222 0 0 1-93.754716-159.676001A182.382222 182.382222 0 0 1 511.035577 64.479074z m0-62.99145a244.641213 244.641213 0 0 0-118.658313 458.51916v103.27668h-146.491744A180.917304 180.917304 0 0 0 67.165591 744.200768v90.824882h887.739972v-90.824882a180.917304 180.917304 0 0 0-180.917305-180.917304H610.649963V469.528747A244.641213 244.641213 0 0 0 511.035577 0.022706z" p-id="10391"></path>
    <path d="M872.870186 958.078715H148.46851c-24.903597 0-45.412441 14.649174-45.412441 32.960642s20.508844 32.960643 45.412441 32.960643H872.870186c24.903597 0 45.412441-14.649174 45.412441-32.960643s-19.776386-32.960643-45.412441-32.960642z" p-id="10392"></path>
</svg>
