<?xml version="1.0" standalone="no"?><!DOCTYPE svg PUBLIC "-//W3C//DTD SVG 1.1//EN" "http://www.w3.org/Graphics/SVG/1.1/DTD/svg11.dtd"><svg t="1636438860039" class="icon" viewBox="0 0 1024 1024" version="1.1" xmlns="http://www.w3.org/2000/svg" p-id="5010" xmlns:xlink="http://www.w3.org/1999/xlink" width="200" height="200"><defs><style type="text/css"></style></defs><path d="M799.451429 182.052571H151.405714c-17.700571 0-29.476571-11.776-29.476571-29.476571 0-17.627429 11.776-29.476571 29.476571-29.476571h648.045715c17.700571 0 29.476571 11.849143 29.476571 29.476571 0 17.700571-11.776 29.476571-29.476571 29.476571zM711.094857 69.851429H239.762286c-17.700571 0-29.476571-11.702857-29.476572-29.403429 0-17.700571 11.776-29.476571 29.476572-29.476571h471.332571c17.627429 0 29.476571 11.776 29.476572 29.476571 0 17.627429-11.849143 29.403429-29.476572 29.403429z m133.12 811.154285H656.457143a86.820571 86.820571 0 0 1-88.356572-88.429714V704.219429h88.356572c11.776 0 20.626286-5.851429 26.550857-17.627429a31.597714 31.597714 0 0 0-2.925714-32.402286L503.222857 447.926857a27.648 27.648 0 0 0-44.178286 0l-176.713142 206.262857c-8.850286 8.777143-8.850286 20.626286-2.925715 32.402286 2.925714 11.702857 11.702857 17.627429 23.552 17.627429H391.314286v88.356571c0 50.102857-38.326857 88.429714-88.356572 88.429714H106.642286c-17.627429 0-29.476571-11.776-29.476572-29.476571v-530.285714c0-17.554286 11.849143-29.403429 29.476572-29.403429h737.572571c17.627429 0 29.403429 11.776 29.403429 29.476571V409.6c0 17.700571 11.849143 29.476571 29.476571 29.476571 17.700571 0 29.476571-11.776 29.476572-29.476571V321.316571c0-50.102857-38.326857-88.356571-88.356572-88.356571H106.642286C56.612571 232.96 18.285714 271.213714 18.285714 321.316571v530.212572c0 50.102857 38.326857 88.356571 88.356572 88.356571h196.388571a145.846857 145.846857 0 0 0 147.236572-147.309714v-117.76c0-17.700571-11.702857-29.476571-29.476572-29.476571H367.908571l111.908572-132.534858 111.908571 132.534858h-53.028571c-17.627429 0-29.403429 11.702857-29.403429 29.476571v117.76c0 82.505143 64.804571 147.309714 147.236572 147.309714h187.757714c50.029714 0 88.356571-38.253714 88.356571-88.356571v-324.022857c0-17.700571-11.776-29.476571-29.476571-29.476572-17.627429 0-29.476571 11.776-29.476571 29.476572v324.022857c0 17.700571-11.702857 29.476571-29.403429 29.476571z" fill="#000000" p-id="5011"></path></svg>