<?xml version="1.0" standalone="no"?><!DOCTYPE svg PUBLIC "-//W3C//DTD SVG 1.1//EN" "http://www.w3.org/Graphics/SVG/1.1/DTD/svg11.dtd"><svg t="1632390151641" class="icon" viewBox="0 0 1024 1024" version="1.1" xmlns="http://www.w3.org/2000/svg" p-id="2558" xmlns:xlink="http://www.w3.org/1999/xlink" width="32" height="32">
    <path d="M512.2 1014.7c-274.7 0-501.8-227.1-501.8-501.8C10.3 238.1 237.5 11 512.2 11 786.9 11 1014 238.1 1014 512.8c0 274.7-227.1 501.9-501.8 501.9z m0-898C295.6 116.7 116 296.2 116 512.8 116 729.4 295.6 909 512.2 909s396.2-179.6 396.2-396.2c-0.1-216.6-179.6-396.1-396.2-396.1z m0 0" p-id="2559"></path>
    <path d="M712.9 565.6H316.7c-31.7 0-52.8-21.1-52.8-52.8 0-31.7 21.1-52.8 52.8-52.8h396.2c31.7 0 52.8 21.1 52.8 52.8 0 31.7-21.1 52.8-52.8 52.8z m0 0" p-id="2560"></path>
    <path d="M512.2 766.4c-31.7 0-52.8-21.1-52.8-52.8V312.1c0-31.7 21.1-52.8 52.8-52.8 31.7 0 52.8 21.1 52.8 52.8v401.5c0 31.7-21.1 52.8-52.8 52.8z m0 0" p-id="2561"></path>
</svg>
