<?xml version="1.0" encoding="UTF-8"?>
<svg width="22px" height="22px" viewBox="0 0 22 22" version="1.1" xmlns="http://www.w3.org/2000/svg" xmlns:xlink="http://www.w3.org/1999/xlink">
    <g transform="translate(-1565.000000, -239.000000)">
        <g transform="translate(1565.000000, 239.000000)">
            <g transform="translate(2.000000, 2.000000)">
                <path d="M17.8847132,9.13708496 L17.7384003,9.39648438 L16.210244,8.49584961 L16.3565568,8.2364502 C16.6024437,7.80895996 17.1389241,7.66369629 17.5575414,7.91271973 C17.9781908,8.15966797 18.1245037,8.70544434 17.8847132,9.13708496 Z M13.9159773,16.1553955 L13.9139452,16.1533203 L12.4203349,17 L12.3939173,15.2568359 L12.3898531,15.2547607 L15.9155862,9.01672363 L17.4437425,9.9152832 L13.9159773,16.1553955 Z M14.1801533,0.527099609 C13.8489173,0.188842773 13.4018503,0 12.9324299,0 L1.76388291,0 C1.29649467,0 0.847395526,0.188842773 0.516159508,0.527099609 C0.185509614,0.864309106 -0.000197118406,1.32199069 1.57012917e-07,1.79919434 L1.57012917e-07,15.0057373 C1.57012917e-07,15.9997559 0.790496088,16.8070068 1.76388291,16.8070068 L10.0407191,16.8028564 L10.071201,16.7426758 L14.6942968,8.56433105 L14.6942968,1.79919434 C14.6963125,1.32189941 14.5093572,0.865356445 14.1801533,0.527099609 L14.1801533,0.527099609 Z M8.2300977,12.6047363 L3.52776551,12.6047363 C3.20262586,12.6047363 2.94048202,12.3349609 2.94048202,12.0050049 C2.94048202,11.6729736 3.20465799,11.4052734 3.52776551,11.4052734 L8.2300977,11.4052734 C8.55523735,11.4052734 8.81738119,11.6729736 8.81738119,12.0050049 C8.81738119,12.3370361 8.55523735,12.6047363 8.2300977,12.6047363 Z M9.40466468,9.00427246 L3.52776551,9.00427246 C3.20262586,9.00427246 2.94048202,8.73449707 2.94048202,8.40454102 C2.94048202,8.07250977 3.20465799,7.80480957 3.52776551,7.80480957 L9.40669681,7.80480957 C9.73183646,7.80480957 9.9939803,8.07458496 9.9939803,8.40454102 C9.9939803,8.73449707 9.72980433,9.00427246 9.40466468,9.00427246 Z M11.1685473,5.4017334 L3.52776551,5.4017334 C3.20262586,5.4017334 2.94048202,5.1340332 2.94048202,4.80200195 C2.94048202,4.4699707 3.20465799,4.20227051 3.52776551,4.20227051 L11.1705794,4.20227051 C11.4957191,4.20227051 11.7578629,4.4720459 11.7578629,4.80200195 C11.7578629,5.1340332 11.4936869,5.4017334 11.1685473,5.4017334 Z"></path>
            </g>
        </g>
    </g>
</svg>
