<?xml version="1.0" encoding="UTF-8"?>
<svg width="20px" height="20px" viewBox="0 0 20 20" version="1.1" xmlns="http://www.w3.org/2000/svg" xmlns:xlink="http://www.w3.org/1999/xlink">
    <g transform="translate(-16.000000, -166.000000)">
        <g transform="translate(16.000000, 166.000000)">
            <g transform="translate(3.000000, 3.000000)">
                <path d="M3.28010585,0 C1.4714093,0 0,1.47810105 0,3.29499076 C0,5.11188046 1.47142383,6.58998152 3.28010585,6.58998152 L6.56021171,6.58998152 L6.56021171,3.29500535 C6.56021171,1.47810105 5.08880241,0 3.28010585,0 Z M14,3.29500535 C14,1.47810105 12.5285762,1.45947811e-05 10.7198796,1.45947811e-05 C8.91118306,1.45947811e-05 7.43977377,1.47810105 7.43977377,3.29500535 L7.43977377,6.58999611 L10.7198796,6.58999611 C12.5285762,6.58999611 14,5.11189506 14,3.29500535 Z M0,10.7050092 C0,12.5219135 1.47142383,14 3.28010585,14 C5.08878788,14 6.56021171,12.5218989 6.56021171,10.7050092 L6.56021171,7.41000389 L3.28010585,7.41000389 C1.47142383,7.41000389 0,8.88810494 0,10.7050092 Z M10.7198796,7.41000389 L7.43977377,7.41000389 L7.43977377,10.7049946 C7.43977377,12.5218989 8.91119759,13.9999854 10.7198796,13.9999854 C12.5285616,13.9999854 14,12.5218844 14,10.7049946 C14,8.88810494 12.5285762,7.41000389 10.7198796,7.41000389 Z"></path>
            </g>
        </g>
    </g>
</svg>
