<?xml version="1.0" encoding="UTF-8"?>
<svg width="20px" height="20px" viewBox="0 0 20 20" version="1.1" xmlns="http://www.w3.org/2000/svg" xmlns:xlink="http://www.w3.org/1999/xlink">
    <g transform="translate(-16.000000, -294.000000)">
        <g transform="translate(0.000000, 272.000000)">
            <g transform="translate(16.000000, 22.000000)">
                <g transform="translate(3.000000, 3.000000)">
                    <path d="M14,7.688 L14,13.32 C14,13.6955536 13.6955536,14 13.32,14 L0.680000002,14 C0.304446371,14 0,13.6955536 0,13.32 L0,7.688 C0.000218217475,7.53566818 0.0768184867,7.39359869 0.20396729,7.30970462 C0.331116094,7.22581055 0.491864521,7.21127496 0.632000004,7.271 L7,9.99999999 L13.368,7.271 C13.5081355,7.21127496 13.6688839,7.22581055 13.7960327,7.30970462 C13.9231815,7.39359869 13.9997818,7.53566818 14,7.688 L14,7.688 Z M12,0.906999994 L12,7 L7,9 L2,7 L2,0.906999994 C2,0.666448637 2.09555865,0.435749637 2.26565415,0.265654143 C2.43574965,0.0955586484 2.66644865,0 2.907,0 L11.093,0 C11.3335514,0 11.5642504,0.0955586484 11.7343459,0.265654143 C11.9044413,0.435749637 12,0.666448637 12,0.906999994 Z M9.50000001,5 L4.50000001,5 C4.22385763,5 4.00000001,5.22385763 4.00000001,5.5 C4.00000001,5.77614237 4.22385763,6 4.50000001,6 L9.50000001,6 C9.77614237,6 10,5.77614237 10,5.5 C10,5.22385763 9.77614237,5 9.50000001,5 L9.50000001,5 Z M9.50000001,2 L4.50000001,2 C4.22385763,2 4.00000001,2.22385763 4.00000001,2.5 C4.00000001,2.77614237 4.22385763,3 4.50000001,3 L9.50000001,3 C9.77614237,3 10,2.77614237 10,2.5 C10,2.22385763 9.77614237,2 9.50000001,2 L9.50000001,2 Z"></path>
                </g>
            </g>
        </g>
    </g>
</svg>
