<?xml version="1.0" standalone="no"?><!DOCTYPE svg PUBLIC "-//W3C//DTD SVG 1.1//EN" "http://www.w3.org/Graphics/SVG/1.1/DTD/svg11.dtd">
<svg t="1631862189250" class="icon" viewBox="0 0 1024 1024" version="1.1" xmlns="http://www.w3.org/2000/svg" p-id="4507" width="32" height="32">
    <path d="M960 767.42c0 22.76-18.45 41.22-41.22 41.22s-41.22-18.45-41.22-41.22c0-136.58-110.72-247.29-247.29-247.29H403.59c-11.38 0-20.61 9.23-20.61 20.61v181.35c0.1 11.38-9.05 20.69-20.43 20.78-5.07 0.05-9.97-1.78-13.78-5.12L70.98 494.57c-8.54-7.53-9.35-20.55-1.83-29.09 0.57-0.64 1.18-1.25 1.83-1.82l277.79-243.17c8.55-7.52 21.57-6.67 29.08 1.88 3.34 3.8 5.17 8.71 5.13 13.78V417.5c0 11.38 9.23 20.61 20.61 20.61h226.69c181.94-0.01 329.5 147.36 329.72 329.31z"></path>
</svg>
