<?xml version="1.0" standalone="no"?><!DOCTYPE svg PUBLIC "-//W3C//DTD SVG 1.1//EN" "http://www.w3.org/Graphics/SVG/1.1/DTD/svg11.dtd">
<svg t="1631513576563" class="icon" viewBox="0 0 1024 1024" version="1.1" xmlns="http://www.w3.org/2000/svg" p-id="4421" xmlns:xlink="http://www.w3.org/1999/xlink" width="32" height="32">
    <path d="M967.111111 562.574222c-20.252444 212.366222-192.170667 384.284444-404.536889 404.536889v-222.492444c91.022222-15.189333 161.792-85.959111 182.044445-182.044445H967.111111z m-687.729778 0c15.189333 91.022222 85.959111 161.792 182.044445 182.044445V967.111111C249.059556 946.858667 77.141333 774.940444 56.888889 562.574222h222.492444z m182.044445-138.183111a101.148444 101.148444 0 1 1 102.4 174.478222 101.148444 101.148444 0 0 1-102.4-174.478222zM562.631111 56.888889c212.366222 20.252444 384.284444 192.170667 404.536889 404.536889h-222.492444c-15.189333-91.022222-91.022222-166.855111-182.044445-182.044445V56.888889zM461.368889 56.888889v222.492444c-91.022222 15.189333-166.855111 91.022222-182.044445 182.044445H56.888889C77.141333 249.059556 249.059556 77.141333 461.425778 56.888889z" p-id="4422"></path>
</svg>
